<svg version="1.1" xmlns="http://www.w3.org/2000/svg" viewBox="254 160 45 80">
<path d="M0,0 L4,0 L4,2 L9,2 L9,0 L13,0 L13,2 L17,2 L17,4 L23,4 L23,5 L24,5 L24,17 L19,17 L19,24 L20,24 L20,25 L22,25 L22,29 L24,29 L24,38 L26,38 L26,42 L27,42 L27,43 L28,43 L28,51 L29,51 L29,52 L31,52 L31,62 L28,62 L28,64 L24,64 L24,62 L22,62 L22,64 L20,64 L20,65 L19,65 L19,74 L20,74 L20,75 L22,75 L22,77 L26,77 L26,80 L13,80 L13,66 L14,66 L14,65 L15,65 L15,64 L13,64 L13,62 L10,62 L10,64 L4,64 L4,77 L6,77 L6,80 L-3,80 L-3,66 L-2,66 L-2,65 L-1,65 L-1,64 L-5,64 L-5,62 L-12,62 L-12,60 L-13,60 L-13,59 L-14,59 L-14,50 L-12,50 L-12,41 L-10,41 L-10,40 L-9,40 L-9,36 L-7,36 L-7,25 L-5,25 L-5,18 L0,18 L0,17 L-5,17 L-5,11 L-3,11 L-3,7 L-1,7 L-1,6 L0,6 Z " fill="#D97C79" transform="translate(268,160)"/>
<path d="M0,0 L2,0 L2,2 L7,2 L7,4 L15,4 L15,3 L16,3 L16,2 L20,2 L20,5 L23,5 L23,7 L25,7 L25,9 L22,9 L22,11 L14,11 L14,14 L25,14 L25,16 L13,16 L13,14 L11,14 L11,16 L9,16 L9,27 L11,27 L11,32 L10,32 L10,45 L12,45 L12,48 L3,48 L3,34 L4,34 L4,33 L5,33 L5,32 L1,32 L1,30 L-6,30 L-6,28 L-7,28 L-7,27 L-8,27 L-8,18 L-6,18 L-6,9 L-2,9 L-2,5 L0,5 Z " fill="#C83856" transform="translate(262,192)"/>
<path d="M0,0 L2,0 L2,2 L15,2 L15,8 L16,8 L16,9 L18,9 L18,13 L20,13 L20,17 L21,17 L21,18 L19,18 L19,16 L17,16 L17,18 L15,18 L15,19 L14,19 L14,28 L15,28 L15,29 L17,29 L17,31 L21,31 L21,34 L8,34 L8,20 L9,20 L9,19 L10,19 L10,18 L8,18 L8,16 L5,16 L5,18 L0,18 L0,13 L-2,13 L-2,2 L0,2 Z " fill="#A6B7B8" transform="translate(273,206)"/>
<path d="M0,0 L4,0 L4,2 L9,2 L9,0 L13,0 L13,2 L17,2 L17,4 L23,4 L23,5 L24,5 L24,17 L19,17 L19,24 L20,24 L20,25 L18,25 L18,23 L11,23 L11,18 L13,18 L13,16 L8,16 L8,12 L10,12 L10,7 L12,7 L12,5 L16,5 L16,3 L2,3 L2,1 L1,1 L1,7 L-1,7 L-1,6 L0,6 Z " fill="#7C6C7F" transform="translate(268,160)"/>
<path d="M0,0 L3,0 L3,3 L6,3 L6,7 L9,7 L9,15 L10,15 L10,16 L12,16 L12,26 L9,26 L9,28 L7,28 L7,27 L6,27 L6,23 L4,23 L4,19 L2,19 L2,18 L1,18 L1,12 L0,12 L0,10 L-11,10 L-11,7 L-3,7 L-3,5 L0,5 Z " fill="#CC4662" transform="translate(287,196)"/>
<path d="M0,0 L1,0 L1,2 L15,2 L15,4 L11,4 L11,6 L9,6 L9,11 L7,11 L7,15 L12,15 L12,17 L10,17 L10,18 L0,18 L0,15 L-5,15 L-5,11 L-3,11 L-3,6 L0,6 Z " fill="#3D3C52" transform="translate(269,161)"/>
<path d="M0,0 L14,0 L14,4 L21,4 L21,6 L23,6 L23,9 L22,9 L22,11 L14,11 L14,9 L11,9 L11,8 L10,8 L10,6 L8,6 L8,4 L0,4 Z " fill="#C82B4B" transform="translate(265,179)"/>
<path d="M0,0 L4,0 L4,3 L7,3 L7,5 L9,5 L9,7 L6,7 L6,9 L-2,9 L-2,12 L9,12 L9,14 L-3,14 L-3,12 L-5,12 L-5,9 L-3,9 L-3,3 L-1,3 L-1,1 L0,1 Z " fill="#383437" transform="translate(278,194)"/>
<path d="M0,0 L1,0 L1,11 L5,11 L5,13 L9,13 L9,16 L-4,16 L-4,2 L0,2 Z " fill="#414B4D" transform="translate(285,224)"/>
<path d="M0,0 L2,0 L2,9 L3,9 L3,11 L10,11 L10,13 L14,13 L14,16 L13,16 L13,25 L14,25 L14,29 L19,29 L19,27 L20,27 L20,30 L11,30 L11,16 L12,16 L12,15 L13,15 L13,14 L9,14 L9,12 L2,12 L2,10 L1,10 L1,9 L0,9 Z " fill="#D6A9AF" transform="translate(254,210)"/>
<path d="M0,0 L1,0 L1,12 L-4,12 L-4,19 L-3,19 L-3,20 L-5,20 L-5,18 L-11,18 L-11,14 L-9,14 L-9,13 L-8,13 L-8,11 L0,11 Z " fill="#85C1D6" transform="translate(291,165)"/>
<path d="M0,0 L1,0 L1,1 L2,1 L2,14 L4,14 L4,16 L-1,16 L-1,12 L-2,12 L-2,3 L0,3 Z " fill="#4F565B" transform="translate(269,223)"/>
<path d="M0,0 L2,0 L2,4 L4,4 L4,13 L6,13 L6,17 L7,17 L7,18 L5,18 L5,14 L2,14 L2,11 L-1,11 L-1,3 L0,3 Z " fill="#E39B9D" transform="translate(288,185)"/>
<path d="M0,0 L4,0 L4,2 L9,2 L9,0 L13,0 L13,2 L17,2 L17,4 L23,4 L23,5 L16,5 L16,3 L2,3 L2,1 L1,1 L1,7 L-1,7 L-1,6 L0,6 Z " fill="#D1D3D6" transform="translate(268,160)"/>
<path d="M0,0 L3,0 L3,5 L-8,5 L-8,2 L0,2 Z " fill="#919597" transform="translate(284,201)"/>
<path d="M0,0 L1,0 L1,2 L4,2 L4,4 L7,4 L7,7 L-2,7 L-2,11 L-3,11 L-3,6 L0,6 Z " fill="#656D7D" transform="translate(269,161)"/>
<path d="M0,0 L1,0 L1,9 L3,9 L3,13 L12,13 L12,11 L13,11 L13,14 L0,14 Z " fill="#CAD0D1" transform="translate(281,226)"/>
<path d="M0,0 L3,0 L3,9 L1,9 L1,7 L-2,7 L-2,2 L0,2 Z " fill="#A8B63C" transform="translate(284,190)"/>
<path d="M0,0 L3,0 L3,3 L14,3 L14,5 L2,5 L2,3 L0,3 Z " fill="#4E4E54" transform="translate(273,203)"/>
<path d="M0,0 L1,0 L1,9 L3,9 L3,13 L8,13 L8,11 L9,11 L9,14 L0,14 Z " fill="#D6DCDD" transform="translate(265,226)"/>
<path d="M0,0 L1,0 L1,1 L2,1 L2,0 L6,0 L6,2 L9,2 L9,4 L0,4 Z " fill="#515B5D" transform="translate(284,235)"/>
</svg>