<?xml version="1.0" encoding="UTF-8"?>
<svg version="1.1" xmlns="http://www.w3.org/2000/svg" width="512" height="512">
<path d="M0 0 C0 0.66 0 1.32 0 2 C0.78697266 2.35384766 0.78697266 2.35384766 1.58984375 2.71484375 C4.76610048 4.40850414 7.64584649 6.4650374 10.5625 8.5625 C11.17947754 9.00505127 11.79645508 9.44760254 12.43212891 9.90356445 C18.14719756 14.04127416 23.61934105 18.43589472 29 23 C29.68320312 23.57105469 30.36640625 24.14210938 31.0703125 24.73046875 C38.88926019 31.3939849 46.37031284 38.37674903 52 47 C53.55849083 48.9163076 55.14293674 50.81173985 56.75 52.6875 C70 68.35469626 70 68.35469626 70 72 C70.66 72 71.32 72 72 72 C73.47695365 74.16027453 74.81456406 76.30307044 76.125 78.5625 C76.52388428 79.2421582 76.92276855 79.92181641 77.33374023 80.62207031 C78.56812537 82.7412326 79.78682248 84.868635 81 87 C81.35433105 87.6192334 81.70866211 88.2384668 82.07373047 88.87646484 C95.92928716 113.30512294 104.84202331 140.45580471 110 168 C110.16371094 168.84030762 110.32742188 169.68061523 110.49609375 170.54638672 C118.01021693 210.98137398 113.96931492 254.97399841 102 294 C101.74460449 294.85013672 101.48920898 295.70027344 101.22607422 296.57617188 C94.79971715 317.77670235 85.32205507 340.19796181 72 358 C71.34 358 70.68 358 70 358 C69.64421875 358.78890625 69.64421875 358.78890625 69.28125 359.59375 C67.60387535 362.74394142 65.57613059 365.60556664 63.5 368.5 C63.06002686 369.11439941 62.62005371 369.72879883 62.16674805 370.36181641 C57.72764145 376.48836729 52.93781065 382.26711814 48 388 C47.38382812 388.72832031 46.76765625 389.45664062 46.1328125 390.20703125 C40.16134803 397.18291255 33.91766099 403.8423042 26.43359375 409.203125 C22.36799636 412.20501071 18.46761984 415.4165912 14.54248047 418.59887695 C2.88257643 428 2.88257643 428 0 428 C0 428.66 0 429.32 0 430 C-27.66757156 450.06500407 -62.7693893 461.7771747 -96 468 C-96.84030762 468.16371094 -97.68061523 468.32742188 -98.54638672 468.49609375 C-161.29788433 480.15734345 -229.98917057 465.71350435 -283.640625 431.765625 C-284.80851562 430.89164062 -284.80851562 430.89164062 -286 430 C-286 429.34 -286 428.68 -286 428 C-286.78890625 427.64421875 -286.78890625 427.64421875 -287.59375 427.28125 C-290.74394142 425.60387535 -293.60556664 423.57613059 -296.5 421.5 C-297.11439941 421.06002686 -297.72879883 420.62005371 -298.36181641 420.16674805 C-304.48836729 415.72764145 -310.26711814 410.93781065 -316 406 C-316.72832031 405.38382812 -317.45664062 404.76765625 -318.20703125 404.1328125 C-325.18291255 398.16134803 -331.8423042 391.91766099 -337.203125 384.43359375 C-340.20501071 380.36799636 -343.4165912 376.46761984 -346.59887695 372.54248047 C-356 360.88257643 -356 360.88257643 -356 358 C-356.66 358 -357.32 358 -358 358 C-359.47695365 355.83972547 -360.81456406 353.69692956 -362.125 351.4375 C-362.52388428 350.7578418 -362.92276855 350.07818359 -363.33374023 349.37792969 C-364.56812537 347.2587674 -365.78682248 345.131365 -367 343 C-367.35433105 342.3807666 -367.70866211 341.7615332 -368.07373047 341.12353516 C-381.92928716 316.69487706 -390.84202331 289.54419529 -396 262 C-396.16371094 261.15969238 -396.32742188 260.31938477 -396.49609375 259.45361328 C-401.86392464 230.56825059 -401.77601959 196.80624928 -396 168 C-395.81195801 167.0414209 -395.62391602 166.0828418 -395.43017578 165.09521484 C-390.87690426 142.68384579 -384.28823457 119.01339839 -373.08007812 98.96044922 C-371.81947591 96.67233082 -370.61953063 94.35682668 -369.421875 92.03515625 C-361.4264515 76.58324496 -361.4264515 76.58324496 -358 72 C-357.34 72 -356.68 72 -356 72 C-355.76410156 71.47535156 -355.52820313 70.95070313 -355.28515625 70.41015625 C-353.59149586 67.23389952 -351.5349626 64.35415351 -349.4375 61.4375 C-348.99494873 60.82052246 -348.55239746 60.20354492 -348.09643555 59.56787109 C-343.95872584 53.85280244 -339.56410528 48.38065895 -335 43 C-334.42894531 42.31679687 -333.85789062 41.63359375 -333.26953125 40.9296875 C-326.60442372 33.10887249 -319.62144624 25.63580921 -311 20 C-309.10561189 18.43991567 -307.23104835 16.85550739 -305.375 15.25 C-300.35986534 10.97060912 -295.17320859 7.31372048 -289.59375 3.7890625 C-286.98488378 2.11098475 -286.98488378 2.11098475 -285.046875 0.0078125 C-276.79667775 -8.08493824 -263.37768009 -13.03875181 -253 -18 C-252.38495605 -18.2976123 -251.76991211 -18.59522461 -251.13623047 -18.90185547 C-176.07825184 -54.85669268 -68.01195265 -50.75686087 0 0 Z " fill="#FECB4C" transform="translate(399,41)"/>
<path d="M0 0 C1.25998236 -0.010195 1.25998236 -0.010195 2.54541892 -0.02059597 C5.35272762 -0.0395467 8.15959924 -0.03713252 10.96696472 -0.03465271 C12.98278361 -0.04363158 14.99859734 -0.05384012 17.0144043 -0.06518555 C22.4855808 -0.09167699 27.95661652 -0.09871867 33.42785096 -0.10063291 C36.8475117 -0.10276607 40.2671367 -0.10917217 43.68678856 -0.11712456 C55.62102403 -0.1448755 67.555159 -0.15713042 79.48942566 -0.1547699 C90.60717892 -0.15296779 101.72449538 -0.18462047 112.84213811 -0.23200089 C122.39308467 -0.27125137 131.9438886 -0.28732058 141.49491519 -0.28540367 C147.19674613 -0.28463939 152.89818886 -0.29315508 158.59993935 -0.32493782 C163.9640607 -0.35402249 169.32742381 -0.35419133 174.69157219 -0.33238792 C176.65674067 -0.32925543 178.62195669 -0.33630955 180.58704376 -0.3544693 C198.44818953 -0.50879603 198.44818953 -0.50879603 205.05179882 4.62597752 C208.08943914 8.30251334 209.1371538 12.52232559 209.03800964 17.27223206 C207.87582399 22.03457176 203.88272431 25.79488183 199.91747952 28.48884869 C196.39516477 29.82831083 192.92890228 29.67960521 189.21258545 29.66183472 C188.36740024 29.66566026 187.52221503 29.66948581 186.65141815 29.67342728 C183.8148056 29.68375929 180.97839538 29.67976475 178.14176941 29.67579651 C176.10990715 29.68014286 174.07804653 29.68532575 172.04618835 29.69128418 C166.52351994 29.70469343 161.00091987 29.70525072 155.47823834 29.70272088 C150.87070473 29.70165251 146.26318502 29.70653108 141.65565437 29.7113263 C130.7875715 29.72242807 119.91952318 29.72285507 109.05143738 29.71681213 C97.83266916 29.71077022 86.61402629 29.7230874 75.39527947 29.7443822 C65.76886525 29.76198391 56.14249097 29.76800184 46.51606125 29.76474446 C40.7641474 29.76292923 35.01232297 29.76559167 29.26042366 29.779459 C23.85219684 29.79200948 18.4441658 29.79011957 13.03594208 29.77704811 C11.04975507 29.77467674 9.0635544 29.77743698 7.07738304 29.78567123 C4.36847815 29.79609298 1.66023573 29.7880749 -1.04864502 29.77536011 C-2.23084544 29.78642153 -2.23084544 29.78642153 -3.43692869 29.79770643 C-8.87387634 29.74392628 -12.14314706 28.62981133 -16.06355286 24.89332581 C-19.11282709 20.88570824 -20.27721275 17.67961074 -19.96589661 12.61207581 C-19.13628251 8.8252889 -17.35624857 5.98170716 -14.48152161 3.40113831 C-9.6501478 0.45683908 -5.53301072 -0.03304365 0 0 Z " fill="#694701" transform="translate(161.4815216064453,340.59886169433594)"/>
<path d="M0 0 C1.31226563 0.00644531 2.62453125 0.01289063 3.9765625 0.01953125 C7.375 0.1875 7.375 0.1875 10.375 1.1875 C10.87 2.1775 10.87 2.1775 11.375 3.1875 C12.2 3.538125 13.025 3.88875 13.875 4.25 C19.82632468 7.08876746 25.68154801 12.77322782 28.25 18.875 C28.62125 19.968125 28.9925 21.06125 29.375 22.1875 C29.87 23.13625 30.365 24.085 30.875 25.0625 C34.79924194 33.23800403 35.89544438 40.37668346 35.8125 49.4375 C35.80855225 50.53980957 35.80460449 51.64211914 35.80053711 52.77783203 C35.65714492 60.90738922 34.61203045 67.67342933 31.375 75.1875 C30.88 76.6725 30.88 76.6725 30.375 78.1875 C29.375 79.1875 28.375 80.1875 27.375 81.1875 C26.03168346 83.18080842 24.69905988 85.18134866 23.375 87.1875 C19.08397442 93.54457494 11.93854127 98.64392015 4.375 100.1875 C-4.12252927 101.44299081 -10.57339008 98.91129946 -17.625 94.1875 C-20.72614007 91.45579105 -23.19969964 88.52636641 -25.625 85.1875 C-26.17929688 84.43726563 -26.73359375 83.68703125 -27.3046875 82.9140625 C-36.33270273 69.3944974 -37.94674768 51.65547984 -34.89453125 35.9296875 C-31.3573194 21.6364641 -25.28295328 10.15732243 -12.625 2.1875 C-8.35508697 0.0450786 -4.74604673 -0.05148571 0 0 Z " fill="#684701" transform="translate(163.625,184.8125)"/>
<path d="M0 0 C11.5014598 5.88900771 18.92969556 14.88044333 23.30810547 26.91455078 C27.86729841 41.57827645 27.51964195 61.09913121 21.00390625 74.9921875 C20.06196973 76.69805679 19.00782502 78.34053463 17.94921875 79.9765625 C17.35109375 80.9665625 16.75296875 81.9565625 16.13671875 82.9765625 C11.98426649 88.67135417 8.09218343 93.40859464 0.94921875 94.9765625 C0.94921875 95.6365625 0.94921875 96.2965625 0.94921875 96.9765625 C-5.155177 99.5468344 -11.25151791 100.17510499 -17.6015625 98.171875 C-29.84982096 92.64777709 -37.55503254 81.95355348 -42.24291992 69.68603516 C-46.97229233 56.11508667 -47.6507526 38.22195323 -41.67578125 24.9140625 C-41.13953125 23.9446875 -40.60328125 22.9753125 -40.05078125 21.9765625 C-39.78652344 21.37328125 -39.52226562 20.77 -39.25 20.1484375 C-35.29117265 11.28903533 -28.75786579 4.30114551 -20.05078125 -0.0234375 C-13.69818648 -2.14096909 -6.34330151 -2.12797054 0 0 Z " fill="#674600" transform="translate(358.05078125,186.0234375)"/>
<path d="M0 0 C0.66 0.33 1.32 0.66 2 1 C1.030625 1.763125 0.06125 2.52625 -0.9375 3.3125 C-4.73101371 7.01675456 -4.78767035 10.69175878 -4.9921875 15.8046875 C-4.99476563 16.52914063 -4.99734375 17.25359375 -5 18 C-5.66 17.67 -6.32 17.34 -7 17 C-7.51132188 11.98904559 -7.61913671 8.22340105 -4.625 4 C-2 1 -2 1 0 0 Z " fill="#926C16" transform="translate(149,343)"/>
<path d="M0 0 C0.66 0.33 1.32 0.66 2 1 C-0.97 3.97 -3.94 6.94 -7 10 C-7.66 9.67 -8.32 9.34 -9 9 C-8.06725891 7.87105124 -7.12859878 6.74699124 -6.1875 5.625 C-5.66542969 4.99851563 -5.14335937 4.37203125 -4.60546875 3.7265625 C-3 2 -3 2 0 0 Z " fill="#8A6512" transform="translate(333,189)"/>
</svg>
